<?xml version="1.0" standalone="no"?>
<!DOCTYPE svg PUBLIC "-//W3C//DTD SVG 20010904//EN"
 "http://www.w3.org/TR/2001/REC-SVG-20010904/DTD/svg10.dtd">
<svg version="1.0" xmlns="http://www.w3.org/2000/svg"
 width="1400.000000pt" height="1050.000000pt" viewBox="0 0 1400.000000 1050.000000"
 preserveAspectRatio="xMidYMid meet">

<g transform="translate(0.000000,1050.000000) scale(0.100000,-0.100000)"
fill="#000000" stroke="none">
<path d="M5986 9379 c-104 -25 -256 -136 -382 -279 -117 -134 -160 -199 -286
-438 -130 -249 -188 -341 -216 -343 -51 -4 -87 26 -103 84 -8 31 -7 50 6 90
21 64 14 93 -24 102 -80 17 -177 -49 -274 -190 -135 -195 -182 -332 -159 -458
50 -266 355 -486 912 -657 172 -52 486 -131 660 -164 74 -15 157 -33 184 -41
113 -35 650 -109 1006 -140 222 -19 556 -29 594 -18 26 8 13 15 -140 72 -555
209 -1023 448 -1285 657 -74 59 -121 119 -145 186 -21 58 -20 162 2 218 42
109 142 227 278 330 l52 39 129 -9 c850 -62 1602 -262 1970 -525 78 -56 161
-144 185 -197 21 -47 26 -131 10 -174 -31 -81 -150 -173 -300 -233 -87 -34
-330 -100 -378 -102 -17 -1 -21 -3 -10 -6 22 -5 184 21 293 48 219 54 367 119
457 199 199 177 86 391 -309 589 -418 209 -1117 368 -1778 406 -139 8 -239 16
-243 19 -7 8 96 65 229 126 283 129 454 238 493 315 32 61 30 212 -3 278 -85
173 -334 163 -725 -27 -106 -52 -167 -91 -321 -208 -303 -230 -399 -289 -495
-304 -29 -5 -47 -2 -66 11 -23 15 -26 22 -21 61 2 25 19 69 38 101 43 72 171
202 276 282 91 68 116 105 115 168 0 54 -32 99 -86 124 -44 20 -79 22 -140 8z
m74 -43 c0 -20 -24 -36 -64 -43 -45 -7 -47 8 -3 36 37 24 67 27 67 7z m-181
-93 c-20 -21 -120 -129 -223 -240 -200 -216 -233 -244 -189 -160 78 152 364
437 438 437 5 0 -7 -17 -26 -37z m1301 -27 c0 -28 -42 -46 -107 -46 -34 0 -64
4 -67 9 -7 10 108 50 147 51 17 0 27 -5 27 -14z m-255 -87 c-73 -50 -315 -164
-485 -228 l-55 -21 30 25 c40 34 204 135 285 175 94 47 159 68 210 69 l45 1
-30 -21z"/>
<path d="M7771 9100 c-90 -24 -135 -49 -139 -77 -6 -39 32 -53 139 -53 93 0
101 -2 180 -40 93 -45 109 -47 150 -23 37 22 45 52 26 89 -54 103 -201 146
-356 104z m228 -34 c28 -25 28 -56 0 -56 -11 0 -57 9 -102 21 -55 14 -102 20
-144 17 -71 -4 -81 3 -25 20 63 19 74 21 163 19 70 -2 91 -6 108 -21z"/>
<path d="M5073 8880 c-56 -34 -53 -104 6 -135 39 -20 59 -19 98 4 35 22 48 50
39 87 -7 27 -59 64 -91 64 -11 0 -35 -9 -52 -20z"/>
<path d="M4501 8384 c-495 -263 -727 -601 -642 -935 10 -41 21 -121 25 -179
24 -379 62 -640 137 -945 157 -632 429 -1137 824 -1529 139 -137 217 -202 358
-296 353 -234 770 -380 1247 -435 147 -18 573 -20 718 -5 403 44 759 171 1096
394 128 85 372 266 433 323 23 21 100 92 172 158 382 350 800 873 1156 1445
92 148 108 167 201 230 183 122 281 75 292 -140 8 -162 -50 -448 -143 -705
-77 -211 -135 -334 -230 -480 -18 -27 -15 -26 35 15 209 170 439 394 560 546
243 304 347 596 296 827 -44 195 -169 345 -372 446 -128 63 -219 85 -359 85
-208 0 -263 -36 -338 -224 -92 -230 -353 -618 -746 -1110 -502 -629 -1209
-1131 -1855 -1315 -269 -77 -434 -100 -711 -99 -225 0 -337 11 -560 55 -1077
213 -1682 931 -2076 2467 -33 129 -59 236 -57 238 3 2 21 -19 43 -47 132 -173
427 -370 762 -507 1442 -593 3821 -477 4890 238 65 44 141 100 168 125 l50 45
-60 -26 c-853 -373 -2114 -507 -3285 -348 -1056 143 -1867 519 -2094 972 -37
73 -66 192 -66 267 0 154 78 329 209 468 19 20 33 37 31 37 -3 0 -52 -25 -109
-56z m6333 -1441 c146 -143 197 -304 146 -464 -11 -35 -27 -75 -36 -89 -14
-24 -15 -21 -10 50 12 201 -49 384 -182 548 -46 56 -46 56 -12 35 19 -12 61
-48 94 -80z"/>
<path d="M8617 7714 c-14 -86 -104 -182 -231 -246 -329 -166 -859 -210 -1366
-112 l-25 4 25 -11 c41 -18 266 -67 395 -86 171 -25 551 -24 690 1 300 55 489
155 540 289 20 52 17 126 -8 173 l-14 27 -6 -39z"/>
<path d="M6968 7363 c7 -3 16 -2 19 1 4 3 -2 6 -13 5 -11 0 -14 -3 -6 -6z"/>
<path d="M8218 7173 c6 -2 18 -2 25 0 6 3 1 5 -13 5 -14 0 -19 -2 -12 -5z"/>
<path d="M4150 6900 c0 -20 111 -391 145 -484 212 -584 506 -1038 864 -1337
351 -294 738 -457 1231 -520 142 -19 490 -16 640 5 151 20 323 60 408 93 58
23 80 43 49 43 -8 0 -41 14 -75 31 -139 69 -233 227 -279 473 -24 126 -24 525
0 718 9 75 17 144 17 153 0 13 -33 15 -267 15 -599 1 -1123 66 -1603 201 -266
75 -606 214 -629 258 -7 12 -17 21 -24 21 -27 0 -156 71 -241 131 -49 35 -122
96 -162 136 -41 39 -74 68 -74 63z"/>
<path d="M9565 4834 c51 -123 57 -224 21 -338 -136 -429 -917 -796 -1976 -930
-513 -65 -1128 -73 -1640 -21 -668 69 -1267 229 -1652 444 -48 27 -85 44 -81
38 135 -239 461 -450 948 -613 1089 -364 2701 -364 3790 0 542 181 878 417
986 693 33 83 33 233 0 316 -33 84 -111 196 -184 263 -61 56 -163 136 -201
156 -16 9 -18 8 -11 -8z"/>
<path d="M8990 4508 c30 -50 27 -123 -8 -179 -211 -333 -1396 -578 -2457 -509
-317 21 -635 77 -798 141 -71 28 -77 23 -25 -25 195 -179 737 -296 1379 -296
1124 0 2132 282 2176 609 8 61 -34 141 -100 190 -45 33 -166 101 -182 101 -2
0 4 -15 15 -32z"/>
<path d="M8611 2513 c-37 -7 -106 -84 -140 -157 -83 -173 -131 -509 -131 -915
0 -199 13 -386 31 -453 9 -34 13 -38 43 -38 43 0 70 30 92 105 15 53 17 99 15
386 -3 401 -11 383 134 294 62 -38 96 -34 132 18 16 23 32 49 35 57 3 8 3
-109 0 -260 -4 -269 6 -479 29 -562 9 -34 13 -38 43 -38 48 0 79 40 102 135 4
17 6 177 5 356 -3 401 -11 383 134 294 74 -46 110 -32 158 62 23 43 21 53 -8
53 -14 0 -48 12 -76 26 -28 14 -72 28 -98 31 l-48 5 44 107 c88 211 127 384
104 454 -14 42 -36 52 -98 42 -90 -13 -170 -132 -218 -319 -25 -97 -54 -277
-56 -337 0 -19 -3 -28 -6 -21 -2 6 -16 12 -29 12 -14 0 -47 12 -75 26 -28 14
-72 28 -98 31 l-48 5 44 107 c81 194 124 370 108 440 -12 56 -42 69 -124 54z
m67 -130 c-5 -71 -67 -267 -118 -378 -25 -54 -28 -57 -29 -30 -2 51 28 277 44
338 24 92 53 137 88 137 18 0 19 -5 15 -67z m480 0 c-5 -71 -67 -267 -118
-378 -25 -54 -28 -57 -29 -30 -2 51 28 277 44 338 24 92 53 137 88 137 18 0
19 -5 15 -67z"/>
<path d="M5287 2474 c-3 -4 -55 -8 -114 -10 -59 -2 -187 -9 -283 -16 -255 -18
-775 -16 -868 4 -40 8 -75 11 -78 7 -8 -14 81 -96 135 -124 28 -14 77 -32 109
-40 59 -15 282 -35 384 -35 l57 0 3 -742 c3 -794 3 -798 51 -798 l24 0 -5 770
-5 770 203 0 c188 0 202 -1 195 -17 -18 -46 -46 -174 -60 -276 -32 -225 -29
-627 5 -750 10 -34 14 -37 45 -37 21 0 43 8 54 19 19 19 51 108 51 142 0 9 14
72 31 140 32 128 65 219 80 219 4 0 13 -19 19 -42 44 -178 71 -242 117 -278
23 -18 38 -21 85 -18 70 5 114 33 172 110 l44 57 17 -39 c20 -45 79 -105 118
-119 16 -6 57 -11 91 -11 52 0 76 6 133 35 80 40 203 147 203 176 0 38 -28 30
-81 -23 -58 -58 -129 -98 -172 -98 -17 0 -41 13 -65 34 -41 39 -43 31 29 120
71 88 94 140 94 213 0 69 -17 96 -72 119 -147 62 -303 -80 -307 -278 0 -38 -4
-68 -8 -68 -3 0 -22 -23 -42 -50 -91 -126 -130 -83 -190 208 -33 157 -56 212
-90 212 -41 0 -87 -72 -182 -285 l-18 -40 -4 43 c-3 35 9 71 66 205 140 327
186 540 126 584 -18 13 -86 18 -97 7z m66 -122 c-3 -53 -33 -160 -88 -307 -62
-167 -67 -169 -61 -35 3 63 10 148 17 188 11 69 14 73 41 79 42 8 68 47 68
101 0 37 2 43 13 33 7 -7 11 -32 10 -59z m656 -457 c36 -18 55 -64 47 -109 -7
-38 -69 -137 -109 -174 -34 -32 -40 -19 -45 91 -5 98 13 165 51 192 26 18 22
18 56 0z"/>
<path d="M7190 2428 c-85 -30 -158 -84 -216 -161 -132 -176 -198 -422 -173
-646 22 -201 90 -363 199 -472 83 -84 134 -103 259 -97 115 5 182 37 271 127
104 105 186 281 131 281 -14 0 -30 -19 -53 -62 -40 -77 -137 -177 -200 -206
-89 -41 -176 -21 -237 57 -225 283 -141 1081 121 1152 90 24 205 -20 266 -101
l34 -45 -32 -6 c-53 -11 -75 -41 -75 -103 0 -73 29 -106 92 -106 72 0 100 45
90 145 -10 99 -72 182 -173 231 -80 39 -212 44 -304 12z"/>
<path d="M9452 1939 c-19 -6 -53 -30 -77 -55 -73 -75 -108 -200 -85 -310 15
-74 39 -120 82 -161 43 -42 76 -53 152 -53 52 0 76 6 133 35 80 40 203 147
203 176 0 38 -28 30 -81 -23 -58 -58 -129 -98 -172 -98 -17 0 -41 13 -65 34
-41 39 -43 31 29 120 71 88 94 140 94 213 0 47 -5 67 -20 84 -41 45 -116 60
-193 38z m117 -44 c36 -18 55 -64 47 -109 -7 -38 -69 -137 -109 -174 -34 -32
-40 -19 -45 91 -5 98 13 165 51 192 26 18 22 18 56 0z"/>
<path d="M7948 1931 c-118 -38 -187 -159 -176 -310 8 -112 59 -200 140 -242
53 -27 141 -26 198 4 186 94 184 437 -3 534 -36 18 -122 26 -159 14z m179 -93
c102 -98 102 -306 1 -368 -24 -14 -36 -16 -57 -9 -135 51 -178 309 -65 398 37
29 77 22 121 -21z"/>
</g>
</svg>
